<?xml version="1.0" encoding="UTF-8"?>
<svg xmlns="http://www.w3.org/2000/svg" xmlns:xlink="http://www.w3.org/1999/xlink" width="304px" height="304px" viewBox="0 0 304 304" version="1.1">
<defs>
<clipPath id="clip1">
  <path d="M 89.355469 122.03125 L 214.398438 122.03125 L 214.398438 181.5625 L 89.355469 181.5625 Z M 89.355469 122.03125 "/>
</clipPath>
<clipPath id="clip2">
  <path d="M 50.710938 88.566406 L 166 88.566406 L 166 215.027344 L 50.710938 215.027344 Z M 50.710938 88.566406 "/>
</clipPath>
<clipPath id="clip3">
  <path d="M 50.710938 88.566406 L 169 88.566406 L 169 215.027344 L 50.710938 215.027344 Z M 50.710938 88.566406 "/>
</clipPath>
</defs>
<g id="surface1">
<rect x="0" y="0" width="304" height="304" style="fill:rgb(100%,100%,100%);fill-opacity:1;stroke:none;"/>
<g clip-path="url(#clip1)" clip-rule="nonzero">
<path style=" stroke:none;fill-rule:nonzero;fill:rgb(0%,0%,0%);fill-opacity:1;" d="M 101.882812 181.558594 C 99.648438 181.558594 97.386719 181.277344 95.101562 180.714844 C 92.8125 180.160156 90.898438 179.21875 89.355469 177.890625 L 92.945312 169.671875 C 93.902344 170.789062 94.984375 171.621094 96.1875 172.175781 C 97.378906 172.738281 98.851562 173.023438 100.605469 173.023438 C 102.257812 173.023438 103.585938 172.730469 104.597656 172.144531 C 105.609375 171.558594 106.367188 170.496094 106.878906 168.953125 C 107.378906 167.410156 107.628906 165.203125 107.628906 162.328125 L 107.628906 122.109375 L 116.488281 122.109375 L 116.488281 164.5625 C 116.488281 170.519531 115.144531 174.847656 112.464844 177.539062 C 109.773438 180.21875 106.246094 181.558594 101.882812 181.558594 Z M 138.671875 181.558594 C 136.4375 181.558594 134.175781 181.277344 131.886719 180.714844 C 129.601562 180.160156 127.683594 179.21875 126.140625 177.890625 L 129.734375 169.671875 C 130.691406 170.789062 131.765625 171.621094 132.957031 172.175781 C 134.160156 172.738281 135.636719 173.023438 137.394531 173.023438 C 139.042969 173.023438 140.371094 172.730469 141.382812 172.144531 C 142.394531 171.558594 143.148438 170.496094 143.648438 168.953125 C 144.160156 167.410156 144.417969 165.203125 144.417969 162.328125 L 144.417969 122.109375 L 153.273438 122.109375 L 153.273438 164.5625 C 153.273438 170.519531 151.925781 174.847656 149.234375 177.539062 C 146.554688 180.21875 143.03125 181.558594 138.671875 181.558594 Z M 185.257812 122.03125 L 186.152344 122.03125 L 214.398438 180.761719 L 204.089844 180.761719 L 199.078125 169.269531 L 172.1875 169.269531 L 167.160156 180.761719 L 157.183594 180.761719 Z M 185.65625 139.027344 L 182.160156 147.007812 L 175.777344 161.210938 L 195.550781 161.210938 L 189.246094 147.085938 L 185.832031 139.027344 Z M 185.65625 139.027344 "/>
</g>
<g clip-path="url(#clip2)" clip-rule="nonzero">
<path style=" stroke:none;fill-rule:nonzero;fill:rgb(0%,0%,0%);fill-opacity:1;" d="M 50.710938 151.796875 C 50.710938 116.875 79.019531 88.566406 113.9375 88.566406 C 135.136719 88.566406 153.898438 98.996094 165.371094 115.003906 L 162.027344 115.003906 C 150.960938 100.5625 133.539062 91.25 113.9375 91.25 C 80.5 91.25 53.394531 118.355469 53.394531 151.796875 C 53.394531 185.234375 80.5 212.339844 113.9375 212.339844 C 133.539062 212.339844 150.960938 203.027344 162.027344 188.585938 L 165.371094 188.585938 C 153.898438 204.59375 135.136719 215.027344 113.9375 215.027344 C 79.019531 215.027344 50.710938 186.714844 50.710938 151.796875 Z M 50.710938 151.796875 "/>
</g>
<g clip-path="url(#clip3)" clip-rule="nonzero">
<path style="fill:none;stroke-width:1;stroke-linecap:butt;stroke-linejoin:miter;stroke:rgb(100%,100%,100%);stroke-opacity:1;stroke-miterlimit:4;" d="M 0.00357276 123.602938 C 0.00357276 55.338805 55.340281 0.0020973 123.596778 0.0020973 C 165.036313 0.0020973 201.711104 20.389707 224.137475 51.681253 L 217.601222 51.681253 C 195.968975 23.451667 161.913267 5.247898 123.596778 5.247898 C 58.234252 5.247898 5.249374 58.232777 5.249374 123.602938 C 5.249374 188.965463 58.234252 241.950342 123.596778 241.950342 C 161.913267 241.950342 195.968975 223.746573 217.601222 195.516987 L 224.137475 195.516987 C 201.711104 226.808533 165.036313 247.203779 123.596778 247.203779 C 55.340281 247.203779 0.00357276 191.859435 0.00357276 123.602938 Z M 0.00357276 123.602938 " transform="matrix(0.51157,0,0,0.51157,50.70911,88.565333)"/>
</g>
</g>
</svg>
