<?xml version="1.0" encoding="UTF-8"?>
<svg xmlns="http://www.w3.org/2000/svg" xmlns:xlink="http://www.w3.org/1999/xlink" width="486px" height="304px" viewBox="0 0 485 304" version="1.1">
<defs>
<clipPath id="clip1">
  <path d="M 92.585938 80.1875 L 391.828125 80.1875 L 391.828125 222.828125 L 92.585938 222.828125 Z M 92.585938 80.1875 "/>
</clipPath>
<clipPath id="clip2">
  <path d="M 0.101562 0 L 275 0 L 275 303.019531 L 0.101562 303.019531 Z M 0.101562 0 "/>
</clipPath>
<clipPath id="clip3">
  <path d="M 0.101562 0 L 282 0 L 282 303.019531 L 0.101562 303.019531 Z M 0.101562 0 "/>
</clipPath>
</defs>
<g id="surface1">
<g clip-path="url(#clip1)" clip-rule="nonzero">
<path style=" stroke:none;fill-rule:nonzero;fill:rgb(0%,0%,0%);fill-opacity:1;" d="M 122.566406 222.832031 C 117.21875 222.832031 111.808594 222.15625 106.335938 220.804688 C 100.859375 219.476562 96.277344 217.222656 92.585938 214.035156 L 101.179688 194.339844 C 103.46875 197.015625 106.054688 199.019531 108.933594 200.34375 C 111.785156 201.695312 115.308594 202.371094 119.511719 202.371094 C 123.457031 202.371094 126.640625 201.671875 129.058594 200.269531 C 131.480469 198.867188 133.300781 196.316406 134.519531 192.621094 C 135.71875 188.921875 136.316406 183.632812 136.316406 176.75 L 136.316406 80.378906 L 157.511719 80.378906 L 157.511719 182.101562 C 157.511719 196.378906 154.304688 206.742188 147.890625 213.195312 C 141.445312 219.617188 133.007812 222.832031 122.566406 222.832031 Z M 210.601562 222.832031 C 205.253906 222.832031 199.84375 222.15625 194.371094 220.804688 C 188.894531 219.476562 184.3125 217.222656 180.621094 214.035156 L 189.214844 194.339844 C 191.503906 197.015625 194.078125 199.019531 196.929688 200.34375 C 199.804688 201.695312 203.34375 202.371094 207.546875 202.371094 C 211.492188 202.371094 214.675781 201.671875 217.09375 200.269531 C 219.511719 198.867188 221.320312 196.316406 222.519531 192.621094 C 223.738281 188.921875 224.351562 183.632812 224.351562 176.75 L 224.351562 80.378906 L 245.546875 80.378906 L 245.546875 182.101562 C 245.546875 196.378906 242.328125 206.742188 235.886719 213.195312 C 229.46875 219.617188 221.039062 222.832031 210.601562 222.832031 Z M 322.085938 80.1875 L 324.226562 80.1875 L 391.828125 220.917969 L 367.152344 220.917969 L 355.160156 193.382812 L 290.804688 193.382812 L 278.777344 220.917969 L 254.90625 220.917969 Z M 323.042969 120.917969 L 314.675781 140.035156 L 299.398438 174.074219 L 346.722656 174.074219 L 331.632812 140.226562 L 323.460938 120.917969 Z M 323.042969 120.917969 "/>
</g>
<g clip-path="url(#clip2)" clip-rule="nonzero">
<path style=" stroke:none;fill-rule:nonzero;fill:rgb(0%,0%,0%);fill-opacity:1;" d="M 0.101562 151.507812 C 0.101562 67.832031 67.847656 0 151.417969 0 C 202.144531 0 247.039062 24.992188 274.492188 63.351562 L 266.5 63.351562 C 240.015625 28.746094 198.320312 6.433594 151.417969 6.433594 C 71.394531 6.433594 6.523438 71.386719 6.523438 151.507812 C 6.523438 231.632812 71.394531 296.585938 151.417969 296.585938 C 198.320312 296.585938 240.015625 274.273438 266.5 239.667969 L 274.492188 239.667969 C 247.039062 278.027344 202.144531 303.019531 151.417969 303.019531 C 67.847656 303.019531 0.101562 235.1875 0.101562 151.507812 Z M 0.101562 151.507812 "/>
</g>
<g clip-path="url(#clip3)" clip-rule="nonzero">
<path style="fill:none;stroke-width:1;stroke-linecap:butt;stroke-linejoin:miter;stroke:rgb(100%,100%,100%);stroke-opacity:1;stroke-miterlimit:4;" d="M -0.00000635784 123.598479 C -0.00000635784 55.336657 55.337536 0.000000000000005887 123.600892 0.000000000000005887 C 165.036245 0.000000000000005887 201.707777 20.388363 224.132516 51.681538 L 217.604198 51.681538 C 195.97077 23.450761 161.91248 5.248458 123.600892 5.248458 C 58.234756 5.248458 5.245621 58.236534 5.245621 123.598479 C 5.245621 188.96361 58.234756 241.951686 123.600892 241.951686 C 161.91248 241.951686 195.97077 223.749383 217.604198 195.518606 L 224.132516 195.518606 C 201.707777 226.81178 165.036245 247.200144 123.600892 247.200144 C 55.337536 247.200144 -0.00000635784 191.863487 -0.00000635784 123.598479 Z M -0.00000635784 123.598479 " transform="matrix(1.224234,0,0,1.225806,0.10157,-0.000000000000007216)"/>
</g>
</g>
</svg>
